<?xml version="1.0" encoding="UTF-8"?>
<svg id="Layer_2" data-name="Layer 2" xmlns="http://www.w3.org/2000/svg" viewBox="0 0 75.17 74.06">
  <defs>
    <style>
      .cls-1 {
        fill: #00aeef;
      }

      .cls-2 {
        fill: #21409a;
      }
    </style>
  </defs>
  <g id="Layer_1-2" data-name="Layer 1">
    <path class="cls-1" d="M75.17,25.05l-4.62,49h-12.46l2.59-25.83-18.9,25.83-8.68-26.53-7.63,26.53h-12.46l14.07-49h11.27l7.56,24.99,17.43-24.99h11.83Z"/>
    <path class="cls-2" d="M3.15,57.82c0-4.68,3.1-10.39,4.46-11.92,1.44-1.67,3.42-1.17,2.92-.54-4.37,5.44-4.77,12.06-4.77,15.39s1.26,6.71,4.54,6.71c12.46,0,24.25-62.19,24.25-63.49s-.09-2.29-1.39-2.11C27.81,2.56,5.58,17.59,1.49,34.42c-.13.67-1.49-.36-1.49-2.07C0,20.7,28.12,0,34.47,0c1.21,0,3.29,1.08,3.29,2.61,0,3.87-11.11,66.82-25.38,66.82-6.52,0-9.22-5.44-9.22-11.61Z"/>
  </g>
</svg>