<?xml version="1.0" encoding="UTF-8"?>
<svg id="Layer_2" data-name="Layer 2" xmlns="http://www.w3.org/2000/svg" viewBox="0 0 314.09 99.68">
  <defs>
    <style>
      .cls-1 {
        fill: #00aeef;
      }

      .cls-2 {
        fill: #21409a;
      }
    </style>
  </defs>
  <g id="Layer_1-2" data-name="Layer 1">
    <g>
      <path class="cls-1" d="M71.62,49.56l-4.62,49h-12.46l2.59-25.83-18.9,25.83-8.68-26.53-7.63,26.53h-12.46l14.07-49h11.27l7.56,24.99,17.43-24.99h11.83Z"/>
      <path class="cls-1" d="M73.71,83.86c0-10.5,8.61-18.76,19.6-18.76,9.66,0,16.73,6.72,16.73,15.75,0,10.5-8.61,18.76-19.6,18.76-9.66,0-16.73-6.72-16.73-15.75ZM98.91,81.62c0-3.64-2.66-6.37-6.37-6.37-4.27,0-7.7,3.57-7.7,7.84,0,3.64,2.66,6.37,6.37,6.37,4.27,0,7.7-3.57,7.7-7.84Z"/>
      <path class="cls-1" d="M139.79,65.45l-2.1,10.5c-6.44,0-9.59,2.31-10.85,8.75l-2.73,13.86h-11.97l6.16-31.78,11.55-1.19-1.05,5.25c2.31-3.71,5.6-5.39,10.99-5.39Z"/>
      <path class="cls-1" d="M168.21,86.73l2.17,8.47c-4.62,2.94-9.45,4.41-14.49,4.41-9.8,0-16.59-6.72-16.59-15.75,0-10.5,8.26-18.69,19.18-18.69,8.61,0,15.12,5.6,15.33,15.89l-22.89,7.42c1.33,1.47,3.29,2.38,5.74,2.38,2.66,0,6.65-.98,11.55-4.13ZM149.31,81.2l13.86-4.55c-1.12-1.75-3.15-2.66-5.46-2.66-4.13,0-7.56,3.08-8.4,7.21Z"/>
      <path class="cls-1" d="M185.29,49.35l12.25-1.33-9.8,50.54h-12.04l9.59-49.21Z"/>
      <path class="cls-1" d="M227.43,78.89l-2.8,14.07-.7,5.6h-10.01l.07-1.96c-2.31,1.89-5.25,3.08-8.54,3.08-6.16,0-10.57-4.27-10.57-10.29,0-7,5.74-12.39,13.51-12.39,2.94,0,5.53.91,7.84,2.31l.07-.21c.7-3.92-.91-5.74-6.44-5.74-2.8,0-5.6.42-8.61,1.19l2.66-8.12c2.8-.56,5.74-.91,9.03-.91,11.41,0,16.17,4.55,14.49,13.37ZM214.9,87.36c0-2.17-1.68-3.71-4.06-3.71-2.66,0-4.76,2.03-4.76,4.55,0,2.17,1.68,3.71,4.06,3.71,2.66,0,4.76-1.96,4.76-4.55Z"/>
      <path class="cls-1" d="M267.05,79.17l-3.78,19.39h-12.04l3.64-18.41c.56-2.94-.91-4.76-3.64-4.76-2.59,0-4.9,1.61-5.6,5.04l-3.5,18.13h-11.97l6.16-31.78,11.97-1.19-.84,4.2c2.38-2.87,5.67-4.41,9.8-4.41,7.21,0,11.48,4.9,9.8,13.79Z"/>
      <path class="cls-1" d="M314.09,48.02l-9.8,50.54h-10.57l.63-3.08c-2.31,2.38-5.25,3.99-9.17,3.99-7.91,0-14-6.65-14-15.61,0-10.43,8.26-18.62,17.71-18.62,3.92,0,7.07,1.4,9.1,3.99l3.85-19.88,12.25-1.33ZM296.38,81.62c0-3.64-2.66-6.37-6.3-6.37-4.27,0-7.7,3.57-7.7,7.84,0,3.64,2.66,6.37,6.37,6.37,4.27,0,7.63-3.57,7.63-7.84Z"/>
    </g>
    <g>
      <path class="cls-2" d="M3.15,57.82c0-4.68,3.1-10.39,4.46-11.92,1.44-1.67,3.42-1.17,2.92-.54-4.37,5.44-4.77,12.06-4.77,15.39s1.26,6.71,4.54,6.71c12.46,0,24.25-62.19,24.25-63.49s-.09-2.29-1.39-2.11C27.81,2.56,5.58,17.59,1.49,34.42c-.13.67-1.49-.36-1.49-2.07C0,20.7,28.12,0,34.47,0c1.21,0,3.29,1.08,3.29,2.61,0,3.87-11.11,66.82-25.38,66.82-6.52,0-9.22-5.44-9.22-11.61Z"/>
      <path class="cls-2" d="M37.84,47.07c0-6.7,5.94-15.48,10.84-15.48,2.16,0,3.33,1.08,3.33,2.7,0,2.12-2.43,5.31-4.91,5.31-1.48,0-2.2-.9-2.92-1.8-2.07,3.06-3.73,7.2-3.73,11.11,0,2.07.95,3.42,2.83,3.42,4.9-.09,17.91-14.8,19.03-16.15.76-.94,1.39.5.63,1.26-2.7,2.83-14.58,15.88-19.17,15.88-3.42,0-5.94-2.07-5.94-6.25ZM44.5,37.3c.45.63,1.17.99,1.71.99,1.17,0,4.36-2.2,4.36-4.81,0-.32-.13-.58-.54-.58-1.53,0-3.64,1.75-5.53,4.41Z"/>
      <path class="cls-2" d="M55.89,68.85c.5-6.79,3.51-20.74,5.85-29.47S72.58,6.52,78.97,6.52c2.25,0,3.42,1.84,3.83,2.48.58.94-.45.85-.9.63s-1.17-.54-1.53-.54c-4.95,0-12.2,17.91-16.51,30.15,2.16-3.6,14.31-17.05,23.44-25.47,2.02-4.14,4-6.7,5.58-6.7,1.04,0,2.48,1.03,2.48,1.62,0,1.08-1.67,2.34-3.83,3.96-5,8.32-8.46,20.11-9.9,24.39.54.36.99.85,1.21,1.4.04.09.09.23.13.31,6.97-.45,14.53-3.92,15.88-4.32,1.53-.45,1.35.72-.23,1.67-1.53.9-9.58,3.51-15.3,4.23,1.48,9.22-4.05,33.3-5.8,33.3-.67,0-2.83-1.08-3.33-1.98-.9-1.62-.63-5.31-.36-7.65.86-7.65,2.61-16.42,4.77-24.79-.23-.31-.36-.58-.36-.85,0-.63.41-1.3.99-1.62,1.93-7.11,4.14-13.81,6.3-19.03-5.22,5.08-15.52,16.15-21.06,23.31.86,8.23-.9,25.02-2.97,31.5-.18.63-.58,1.62-1.67,1.62-1.58,0-4.27-1.17-3.96-5.27ZM62.28,59.62c.77-4.32.81-14.49.9-17.32-1.71,6.48-5,21.87-5,27.22,0,.76.22,2.74.81,2.74.86,0,2.52-8.32,3.29-12.64ZM81.54,40.45c-.32-.04-.63-.09-.9-.14-1.93,7.78-5.89,28.26-3.64,28.26,2.43,0,6.07-21.82,4.54-28.12Z"/>
      <path class="cls-2" d="M93.19,48.91c.5-1.48,5.71-17.41,5.71-20.7,0-1.12,3.19,1.4,2.83,2.66-.36,1.26-6.52,18.18-5.04,16.06,1.49-2.11,8.19-12.42,11.11-12.33,1.89.04,2.34,3.46,3.02,5.13.22.5.49.85.76.9,2.25.36,8.46-4.68,9.4-5.49.95-.81,1.44.14.58.85-.85.72-6.61,6.44-8.55,6.52-2.16.09-3.42-1.67-4.09-3.28-.54-1.35-.72-2.56-1.39-2.52-3.38.36-10.75,13.81-11.47,15.57s-3.38-1.89-2.88-3.38Z"/>
      <path class="cls-2" d="M116.28,47.07c0-6.7,5.94-15.48,10.84-15.48,2.16,0,3.33,1.08,3.33,2.7,0,2.12-2.43,5.31-4.91,5.31-1.48,0-2.2-.9-2.92-1.8-2.07,3.06-3.73,7.2-3.73,11.11,0,2.07.95,3.42,2.83,3.42,4.9-.09,17.91-14.8,19.03-16.15.76-.94,1.39.5.63,1.26-2.7,2.83-14.58,15.88-19.17,15.88-3.42,0-5.94-2.07-5.94-6.25ZM122.94,37.3c.45.63,1.17.99,1.71.99,1.17,0,4.36-2.2,4.36-4.81,0-.32-.13-.58-.54-.58-1.53,0-3.64,1.75-5.53,4.41Z"/>
      <path class="cls-2" d="M120.69,81.31c0-8.23,16.02-22.5,29.56-33.03,1.17-3.42,2.25-7.06,3.28-10.93-2.92,4.23-11.11,13.36-13.23,13.36-.72,0-3.38-1.12-3.38-3.64s2.7-7.88,3.24-9.36c.14-.27.14-.49.09-.72-.04-.27-.31-.36-.13-.72.99-1.98,1.26-2.47,1.58-2.56.18-.04.45-.04.72.09.81.4,1.89,1.75,1.89,2.38,0,1.31-6.66,12.46-4.68,12.28,4.32-.36,14-12.82,15.03-15.79.27-.72.23-1.4.18-2.07-.04-.5,2.29.45,2.11,1.98-.36,3.46-1.3,7.83-2.65,12.55,7.69-5.76,13.81-9.85,14.44-10.21.36-.18,1.62.67.9,1.17-4.45,2.74-10.08,6.57-15.88,10.89-5.35,17.77-16.38,39.64-26.37,39.64-4.77,0-6.71-2.79-6.71-5.31ZM125.68,84.87c5.54-.09,15.79-11.65,23.89-34.65-13.68,10.66-27,23.4-27,30.87,0,1.62.99,3.78,3.1,3.78Z"/>
    </g>
  </g>
</svg>